<svg xmlns="http://www.w3.org/2000/svg" xmlns:xlink="http://www.w3.org/1999/xlink" version="1.1" id="Layer_1" x="0px" y="0px" style="enable-background:new 0 0 792 227.35;" xml:space="preserve" viewBox="52.14 24.89 686.57 163.25">
<path d="M94.32,44.19c0,10.65-9.44,19.29-21.09,19.29s-21.09-8.64-21.09-19.29s9.44-19.29,21.09-19.29S94.32,33.53,94.32,44.19z   M341.59,24.89c-11.64,0-21.09,8.64-21.09,19.29s9.44,19.29,21.09,19.29s21.09-8.64,21.09-19.29S353.24,24.89,341.59,24.89z   M90.88,185.87V76.19c0-1.1-0.9-2-2-2H57.35c-1.1,0-2,0.9-2,2v109.68c0,1.1,0.9,2,2,2h31.52C89.98,187.87,90.88,186.97,90.88,185.87  z M359.35,185.87V76.19c0-1.1-0.9-2-2-2h-31.52c-1.1,0-2,0.9-2,2v109.68c0,1.1,0.9,2,2,2h31.52  C358.45,187.87,359.35,186.97,359.35,185.87z M306.37,104.39c1.1,0,2-0.9,2-2V76.44c0-1.1-0.9-2-2-2c0,0-11.64,0.28-14.95-0.21  c-0.41-0.06-0.8-0.69-0.8-0.94c0.15-5.29-1.14-14,16.81-14c0.51,0,0.93-0.75,0.93-1.67V30.17c0-0.92-0.42-1.67-0.93-1.67  c0,0-5.44,0-9.5,0c-45.94,0-42.47,44.7-43.27,45.49S244,74.65,244,74.65c-1.1,0-2,0.9-2,2v25.74c0,1.1,0.9,2,2,2  c0,0,8.19-0.01,9.16,0c0.97,0.01,1.51,1.23,1.51,2.32c0,1.1,0,79.16,0,79.16c0,1.1,0.9,2,2,2h31.52c1.1,0,2-0.9,2-2  c0,0,0-78.91,0-79.81c0-0.9,0.58-1.68,1.49-1.68 M150.51,86.01c-0.5-3.64-0.27-9.55-0.27-9.55c0-1.1-0.9-2-2-2h-31.52  c-1.1,0-2,0.9-2,2v109.68c0,1.1,0.9,2,2,2h31.52c1.1,0,2-0.9,2-2c0,0-0.46-58.01,0.37-65.53c1.01-9.13,9.45-17.71,20.94-17.71  c13.16,0,20.98,10.32,20.98,21.13c0,15.48,0.09,62.11,0.09,62.11c0,1.1,0.9,2,2,2h31.52c1.1,0,2-0.9,2-2c0,0,1.08-60.39,0-69.07  c-7.31-58.78-63.5-44.82-73.27-33.62C152.27,86.43,150.83,88.37,150.51,86.01z M419.55,86.01c-0.5-3.64-0.27-9.55-0.27-9.55  c0-1.1-0.9-2-2-2h-31.52c-1.1,0-2,0.9-2,2v109.68c0,1.1,0.9,2,2,2h31.52c1.1,0,2-0.9,2-2c0,0-0.46-58.01,0.37-65.53  c1.01-9.13,9.45-17.71,20.94-17.71c13.16,0,20.98,10.32,20.98,21.13c0,15.48,0.09,62.11,0.09,62.11c0,1.1,0.9,2,2,2h31.52  c1.1,0,2-0.9,2-2c0,0,1.08-60.39,0-69.07c-7.31-58.78-63.5-44.82-73.27-33.62C421.3,86.43,419.87,88.37,419.55,86.01z   M738.71,129.67c0,32.14-26.4,58.19-58.97,58.19c-24.16,0-40.66-13.53-53.76-33.24c-0.68-1.03-1.5-1.88-2.56-1.88  c-1.06,0-1.45,0.9-2.2,1.88c-17.56,22.98-30.61,33.24-54.77,33.24c-32.57,0-58.97-26.05-58.97-58.19c0-32.14,26.4-58.19,58.97-58.19  c24.17,0,39.68,13.35,53.66,32.56c0.72,0.99,2.62,3.56,3.68,3.56c1.06,0,2.81-2.57,3.53-3.56c12-16.5,28.25-32.56,52.42-32.56  C712.31,71.48,738.71,97.53,738.71,129.67z M537.47,119.61c0.48,0,57.48,0,58.16,0s0.5-0.56,0.39-0.84  c-4.7-11.31-16.09-19.29-29.39-19.29c-13.34,0-24.75,8.02-29.43,19.37C537.09,119.11,536.98,119.61,537.47,119.61z M596.48,140.71  c0.09-0.24-0.23-0.73-0.9-0.73s-57.87,0-58.4,0c-0.53,0-0.51,0.48-0.42,0.71c4.37,11.96,16.09,20.52,29.87,20.52  C580.4,161.21,592.11,152.65,596.48,140.71z M711.51,130.08c0-17.09-13.41-30.94-29.96-30.94c-13.66,0-20.35,6.4-27.14,14.48  c-5.41,6.44-12.35,13.42-12.35,16.46c0,3.04,4.35,8.18,9.39,14.38c6.84,8.41,16.26,16.56,30.11,16.56  C698.1,161.02,711.51,147.17,711.51,130.08z" fill="#6600ff"/>
</svg>